<?xml version="1.0" encoding="utf-8"?>
<!-- Generator: Adobe Illustrator 25.3.0, SVG Export Plug-In . SVG Version: 6.00 Build 0)  -->
<svg version="1.1" id="Layer_1" xmlns="http://www.w3.org/2000/svg" xmlns:xlink="http://www.w3.org/1999/xlink" x="0px" y="0px"
	 viewBox="0 0 150 103" style="enable-background:new 0 0 150 103;" xml:space="preserve">
<style type="text/css">
	.st0{fill:#1B8C92;}
</style>
<path class="st0" d="M73.75,74.8c0,0,12.27-0.56,16.84-7.62c0.38-0.59,1.3-0.24,1.22,0.46c-0.34,2.98-1.5,7.09-5.14,8.98
	C86.67,76.62,82.13,79.34,73.75,74.8"/>
<g>
	<path class="st0" d="M4.6,6.37v90.05c0,0.89,0.72,1.61,1.61,1.61h58.42c0.88,0,1.59-0.7,1.61-1.58c0.1-3.96-0.03-14.13-4-15.51
		l-15.79-3.62c-0.78-0.18-1.31-0.9-1.25-1.7l1.68-20.84c0.07-0.88-0.58-1.65-1.46-1.74l-0.02,0c-0.89-0.08-1.68,0.57-1.76,1.47
		l-2.06,23.9c-0.07,0.81,0.47,1.55,1.27,1.72l16.98,3.64c0,0,2.19-0.5,2.89,6.78c0.01,0.08,0.01,0.16,0.01,0.23l-0.09,2.25
		c-0.03,0.87-0.75,1.55-1.61,1.55L9.57,94.59c-0.89,0-1.61-0.72-1.61-1.61V9.56c0-0.89,0.72-1.61,1.61-1.61h130.18
		c0.89,0,1.61,0.72,1.61,1.61v83.66c0,0.89-0.72,1.61-1.61,1.61h-53.4c-0.9,0-1.63-0.73-1.62-1.63c0.04-2.23,0.35-6.23,1.85-8.78
		c0.24-0.4,0.63-0.68,1.09-0.77l17.17-3.38c0.8-0.16,1.35-0.88,1.3-1.69l-1.61-23.89c-0.06-0.9-0.85-1.58-1.75-1.5l-0.26,0.02
		c-0.88,0.08-1.53,0.84-1.47,1.72l1.39,20.86c0.05,0.8-0.49,1.52-1.28,1.69l-15.35,3.19c0,0-3.61,0.37-4.53,10.59
		c0,0.05-0.01,0.11-0.01,0.16v5c0,0.89,0.72,1.61,1.61,1.61h60.5c0.89,0,1.61-0.72,1.61-1.61V6.37c0-0.89-0.72-1.61-1.61-1.61H6.21
		C5.32,4.76,4.6,5.48,4.6,6.37z"/>
	<path class="st0" d="M11.29,12.54v11.5c0,0.89,0.72,1.61,1.61,1.61h0.3c0.89,0,1.61-0.72,1.61-1.61v-7.97
		c0-0.89,0.72-1.61,1.61-1.61h8.98c0.89,0,1.61-0.72,1.61-1.61v-0.3c0-0.89-0.72-1.61-1.61-1.61H12.9
		C12.01,10.93,11.29,11.65,11.29,12.54z"/>
	<path class="st0" d="M124.22,88.22h9.18c0.89,0,1.61-0.72,1.61-1.61v-7.97c0-0.89,0.72-1.61,1.61-1.61h0.41
		c0.89,0,1.61,0.72,1.61,1.61v11.5c0,0.89-0.72,1.61-1.61,1.61h-12.81c-0.89,0-1.61-0.72-1.61-1.61v-0.3
		C122.6,88.95,123.32,88.22,124.22,88.22z"/>
	<path class="st0" d="M48.83,37.28l0.14,0.03c0.82,0.2,1.35,0.99,1.21,1.82c-0.37,2.26-1.02,6.59-1,9.15c0,0.55-0.28,1.05-0.73,1.36
		c-0.12,0.08-0.25,0.17-0.38,0.27c-1.01,0.74-2.48,0.08-2.55-1.17c-0.03-0.57,0.01-1.26,0.17-2.1l1.16-8.03
		C46.99,37.67,47.91,37.05,48.83,37.28z"/>
	<path class="st0" d="M55.38,38.68h0.2c0.89,0,1.61,0.72,1.61,1.61v6.15c0,0.89-0.72,1.61-1.61,1.61h-0.2
		c-0.89,0-1.61-0.72-1.61-1.61v-6.15C53.77,39.4,54.49,38.68,55.38,38.68z"/>
	<path class="st0" d="M63.96,38.16l0.18,0.05c0.81,0.25,1.29,1.09,1.09,1.91l-1.7,7.18c-0.2,0.86-1.07,1.4-1.93,1.2l-0.35-0.08
		c-0.89-0.2-1.43-1.1-1.2-1.98l1.87-7.15C62.15,38.41,63.08,37.89,63.96,38.16z"/>
	<path class="st0" d="M71.88,38.14l0.47,0.13c0.79,0.23,1.29,1.01,1.15,1.83l-1.23,7.13c-0.15,0.9-1.02,1.49-1.91,1.31l-0.76-0.15
		c-0.88-0.18-1.44-1.04-1.26-1.92l1.52-7.11C70.06,38.44,70.98,37.88,71.88,38.14z"/>
	<path class="st0" d="M78.19,38.25l0.2-0.06c0.92-0.28,1.87,0.3,2.05,1.24l1.39,7.13c0.16,0.84-0.36,1.66-1.19,1.87l-0.11,0.03
		c-0.89,0.22-1.79-0.34-1.97-1.24l-1.48-7.1C76.91,39.3,77.39,38.49,78.19,38.25z"/>
	<path class="st0" d="M87.63,36.22l0.21,0.08c0.77,0.31,1.18,1.16,0.94,1.96l-2.29,7.67c-0.28,0.92-1.29,1.4-2.18,1.03l-0.14-0.06
		c-0.75-0.32-1.15-1.15-0.92-1.94l2.22-7.69C85.74,36.35,86.74,35.86,87.63,36.22z"/>
	<path class="st0" d="M92.51,37.66h0.42c0.81,0,1.49,0.6,1.6,1.4l1.08,7.98c0.13,0.97-0.62,1.83-1.6,1.83H93.4
		c-0.82,0-1.51-0.62-1.6-1.44l-0.89-7.98C90.8,38.5,91.55,37.66,92.51,37.66z"/>
	<path class="st0" d="M100.1,36.55l0.38-0.09c0.95-0.22,1.88,0.43,1.98,1.4c0.18,1.71,0.38,4.54,0.27,8.18
		c0,0.14-0.02,0.28-0.07,0.42c-0.11,0.38-0.38,1.2-0.82,1.97c-0.61,1.08-2.18,1.07-2.8-0.02l-0.22-0.39
		c-0.25-0.43-0.27-0.95-0.09-1.41c0.2-0.5,0.41-1.32,0.46-2.58l-0.33-5.82C98.81,37.43,99.33,36.73,100.1,36.55z"/>
	<path class="st0" d="M43.68,14.48l0.38-0.25c0.78-0.53,1.85-0.27,2.31,0.56l1.18,2.12c0.43,0.77,0.16,1.75-0.61,2.18l-0.27,0.15
		c-0.75,0.43-1.7,0.2-2.16-0.53l-1.29-2.02C42.75,15.95,42.95,14.97,43.68,14.48z"/>
	<path class="st0" d="M54.63,11.8l0.52,0.29c0.75,0.42,1.04,1.36,0.66,2.13L54.41,17c-0.37,0.73-1.23,1.08-2,0.79l-0.38-0.14
		c-0.87-0.32-1.3-1.3-0.93-2.15l1.25-2.93C52.74,11.69,53.8,11.33,54.63,11.8z"/>
	<path class="st0" d="M40.93,22.02c-0.79-0.5-1.82-0.23-2.27,0.58c-3.38,6.14-15.76,30.06-14.46,48.22c0,0-0.54,8.06,5.53,15.72
		c0.59,0.74,1.69,0.82,2.38,0.17l0,0c0.61-0.57,0.69-1.53,0.16-2.18c-2.1-2.58-6.5-10.14-3.68-26.02c0,0,3.03-15.47,13.06-34.25
		c0.4-0.75,0.16-1.68-0.56-2.13L40.93,22.02z"/>
	<path class="st0" d="M61.45,18.03c6.61-0.88,29.51-3.39,40.17,2.26c0.26,0.14,0.47,0.34,0.62,0.59
		c2.07,3.44,17.35,29.51,15.51,47.01c0,0,0.56,10.33-8.65,16.51c-0.67,0.45-0.89,1.33-0.53,2.05l0.03,0.06
		c0.4,0.8,1.37,1.13,2.17,0.72c3.34-1.71,11.09-7.37,10.61-23.03c0,0-0.45-20.16-16.35-45.68c-0.1-0.17-0.23-0.31-0.39-0.43
		c-1.64-1.25-11.97-7.83-43.61-3.67c-0.8,0.11-1.41,0.79-1.41,1.6v0.41C59.63,17.41,60.48,18.16,61.45,18.03z"/>
</g>
</svg>
